<?xml version="1.0" encoding="UTF-8"?>
<svg width="25px" height="18px" viewBox="0 0 25 18" version="1.1" xmlns="http://www.w3.org/2000/svg" xmlns:xlink="http://www.w3.org/1999/xlink">
    <!-- Generator: Sketch 63.1 (92452) - https://sketch.com -->
    <title>↳🎨 Icon Color</title>
    <desc>Created with Sketch.</desc>
    <defs>
        <path d="M21.7904662,0.756817296 L3.0938894,0.756817296 C1.80499413,0.756817296 0.756817296,1.90865997 0.756817296,3.32502839 L0.756817296,14.8819783 C0.756817296,16.2983468 1.80499413,17.4501894 3.0938894,17.4501894 L21.7904662,17.4501894 C23.0793614,17.4501894 24.1275383,16.2983468 24.1275383,14.8819783 L24.1275383,3.32502839 C24.1275383,1.90865997 23.0793614,0.756817296 21.7904662,0.756817296 Z M19.596514,3.33610371 L12.4532531,8.2413869 L5.30999224,3.33610371 L19.596514,3.33610371 Z M3.10496471,14.8930536 L3.10496471,4.85006415 L11.833929,10.845553 C12.0232318,10.9752476 12.2382425,11.040737 12.4532531,11.040737 C12.6682637,11.040737 12.8832744,10.9752476 13.0725772,10.845553 L21.8015415,4.84878005 L21.80271,14.8930536 L3.10496471,14.8930536 Z" id="path-1"></path>
    </defs>
    <g id="Symbols" stroke="none" stroke-width="1" fill="none" fill-rule="evenodd">
        <g id="icon">
            <mask id="mask-2" fill="white">
                <use xlink:href="#path-1"></use>
            </mask>
            <use id="↳🎨-Icon-Color" fill="#FFFFFF" xlink:href="#path-1"></use>
        </g>
    </g>
</svg>